<?xml version="1.0" encoding="utf-8"?>
<!-- Generator: Adobe Illustrator 16.0.0, SVG Export Plug-In . SVG Version: 6.00 Build 0)  -->
<!DOCTYPE svg PUBLIC "-//W3C//DTD SVG 1.1//EN" "http://www.w3.org/Graphics/SVG/1.1/DTD/svg11.dtd">
<svg version="1.1" id="Layer_1" xmlns="http://www.w3.org/2000/svg" xmlns:xlink="http://www.w3.org/1999/xlink" x="0px" y="0px"
	 width="144px" height="70px" viewBox="0 0 144 70" enable-background="new 0 0 144 70" xml:space="preserve">
<g>
	<path fill="#F24A72" d="M140.793,27.082c-2.419,1.623-5.175,2.793-7.994,3.654c-2.828,0.854-5.734,1.475-8.661,1.863
		c-2.927,0.398-5.872,0.665-8.817,0.781c-2.945,0.098-5.892,0.098-8.831,0.016c-2.942-0.069-5.877-0.245-8.801-0.502
		c-2.927-0.239-5.843-0.568-8.75-0.948c-2.909-0.368-5.806-0.815-8.693-1.309c-2.89-0.482-5.769-1.026-8.638-1.632l-4.302-0.933
		l-2.151-0.5c-0.738-0.185-1.387-0.335-2.223-0.568c-1.487-0.426-2.546-0.679-3.87-0.919c-1.27-0.218-2.537-0.387-3.776-0.43
		c-2.482-0.129-4.874,0.143-7.015,0.919c-2.14,0.772-4.067,1.988-5.714,3.667c-1.65,1.67-3.017,3.758-4.145,6.053
		c-1.128,2.299-1.978,4.817-2.663,7.414c-0.684,2.601-1.176,5.294-1.501,8.021c-0.174,1.362-0.308,2.734-0.401,4.107
		c-0.091,1.351-0.147,2.8-0.14,4.035l0.02,3.358l-3.141,0.196c-0.271,0.017-0.327,0.009-0.434,0.009l-0.265-0.015
		c-0.159-0.012-0.315-0.027-0.441-0.048c-0.278-0.037-0.516-0.09-0.754-0.146c-0.467-0.115-0.888-0.26-1.287-0.417
		c-0.784-0.324-1.499-0.697-2.133-1.114c-1.288-0.825-2.352-1.772-3.311-2.758c-0.964-0.985-1.805-2.019-2.567-3.083
		c-0.76-1.063-1.463-2.146-2.094-3.247c-0.65-1.097-1.23-2.213-1.786-3.334c-0.546-1.126-1.041-2.266-1.521-3.405
		c-0.462-1.146-0.925-2.289-1.335-3.444c-0.418-1.153-0.825-2.307-1.19-3.47c-0.389-1.157-0.733-2.323-1.07-3.491
		c-0.343-1.166-0.614-2.349-0.923-3.521c-0.306-1.172-0.554-2.355-0.833-3.53c-0.279-1.175-0.502-2.361-0.754-3.539
		c-0.241-1.182-0.428-2.373-0.638-3.559c-0.213-1.185-0.401-2.372-0.578-3.562c-0.362-2.377-0.645-4.765-0.903-7.151
		c0.384,1.14,0.75,2.282,1.111,3.424c0.35,1.145,0.762,2.272,1.123,3.411c0.363,1.138,0.735,2.271,1.132,3.397
		c0.394,1.127,0.764,2.259,1.186,3.373c0.403,1.119,0.774,2.248,1.2,3.355c0.425,1.108,0.82,2.226,1.268,3.321
		c0.451,1.094,0.865,2.201,1.345,3.278c0.46,1.084,0.896,2.177,1.387,3.241c0.466,1.077,0.968,2.132,1.478,3.181
		c0.502,1.053,1.049,2.076,1.59,3.098c0.557,1.013,1.123,2.014,1.726,2.982c0.59,0.975,1.194,1.936,1.843,2.845
		c0.634,0.923,1.314,1.794,2.015,2.62c0.707,0.818,1.426,1.604,2.188,2.271c0.752,0.678,1.539,1.267,2.299,1.675
		c0.38,0.216,0.748,0.357,1.076,0.469c0.161,0.048,0.312,0.084,0.427,0.099c0.054,0.006,0.108,0.017,0.127,0.012
		c0.022,0.003,0.015-0.002,0.005-0.004l-0.041-0.004c-0.032,0-0.015-0.005-0.21,0.007l-3.121,3.555
		c-0.101-1.656-0.114-3.104-0.099-4.644c0.021-1.519,0.084-3.034,0.197-4.551c0.242-3.031,0.67-6.065,1.34-9.092
		c0.677-3.024,1.634-6.036,2.976-8.974c1.337-2.933,3.132-5.79,5.535-8.263c2.385-2.47,5.424-4.51,8.754-5.641
		c3.323-1.169,6.803-1.489,10.088-1.293c1.654,0.083,3.256,0.346,4.829,0.652c1.52,0.302,3.264,0.78,4.547,1.186
		c0.554,0.173,1.31,0.371,1.971,0.552l2.06,0.556l4.145,1.067c5.546,1.372,11.126,2.646,16.731,3.769
		c5.605,1.121,11.239,2.079,16.894,2.854c2.828,0.382,5.665,0.683,8.505,0.89c2.841,0.216,5.688,0.383,8.533,0.369
		c2.844-0.026,5.693-0.134,8.523-0.505C135.269,28.74,138.086,28.166,140.793,27.082z"/>
</g>
<path fill-rule="evenodd" clip-rule="evenodd" fill="#333C83" d="M31.372,17.033c0-4.634-3.781-8.26-8.33-8.26
	c-4.627,0-8.408,3.626-8.408,8.26c0,4.647,3.781,8.308,8.408,8.308C27.591,25.341,31.372,21.681,31.372,17.033z"/>
<text transform="matrix(1 0 0 1 42.231 61.4629)" fill="#333C83" font-family="'TwCenMT-Regular'" font-size="39.7889">ITON</text>
</svg>
